<<<<<<< HEAD
<mxfile host="app.diagrams.net" modified="2023-04-10T06:28:18.633Z" agent="Mozilla/5.0 (Windows NT 10.0; Win64; x64) AppleWebKit/537.36 (KHTML, like Gecko) Chrome/110.0.0.0 YaBrowser/23.3.0.2246 Yowser/2.5 Safari/537.36" etag="jEzcZKAU0Xq0x9GeuzZH" version="21.1.5" type="device">
  <diagram id="OtYZnX7mGi9Z4rE8U8-V" name="Страница 1">
    <mxGraphModel dx="1002" dy="553" grid="1" gridSize="10" guides="1" tooltips="1" connect="1" arrows="1" fold="1" page="1" pageScale="1" pageWidth="827" pageHeight="1169" math="0" shadow="0">
      <root>
        <mxCell id="0" />
        <mxCell id="1" parent="0" />
        <mxCell id="A6NE80T4TAQlHc2OVtD5-1" value="serial_circuit" style="swimlane;fontStyle=1;align=center;verticalAlign=top;childLayout=stackLayout;horizontal=1;startSize=26;horizontalStack=0;resizeParent=1;resizeParentMax=0;resizeLast=0;collapsible=1;marginBottom=0;whiteSpace=wrap;html=1;" parent="1" vertex="1">
          <mxGeometry x="140" y="280" width="180" height="188" as="geometry" />
        </mxCell>
        <mxCell id="A6NE80T4TAQlHc2OVtD5-2" value="id: PK NN AI" style="text;align=left;verticalAlign=top;spacingLeft=4;spacingRight=4;overflow=hidden;rotatable=0;points=[[0,0.5],[1,0.5]];portConstraint=eastwest;whiteSpace=wrap;html=1;" parent="A6NE80T4TAQlHc2OVtD5-1" vertex="1">
          <mxGeometry y="26" width="180" height="26" as="geometry" />
        </mxCell>
        <mxCell id="A6NE80T4TAQlHc2OVtD5-3" value="" style="line;strokeWidth=1;align=left;verticalAlign=middle;spacingTop=-1;spacingLeft=3;spacingRight=3;rotatable=0;labelPosition=right;points=[];portConstraint=eastwest;" parent="A6NE80T4TAQlHc2OVtD5-1" vertex="1">
          <mxGeometry y="52" width="180" height="8" as="geometry" />
        </mxCell>
        <mxCell id="A6NE80T4TAQlHc2OVtD5-4" value="Gp_list: JSON NN" style="text;align=left;verticalAlign=top;spacingLeft=4;spacingRight=4;overflow=hidden;rotatable=0;points=[[0,0.5],[1,0.5]];portConstraint=eastwest;whiteSpace=wrap;html=1;" parent="A6NE80T4TAQlHc2OVtD5-1" vertex="1">
          <mxGeometry y="60" width="180" height="26" as="geometry" />
        </mxCell>
        <mxCell id="A6NE80T4TAQlHc2OVtD5-20" value="" style="line;strokeWidth=1;align=left;verticalAlign=middle;spacingTop=-1;spacingLeft=3;spacingRight=3;rotatable=0;labelPosition=right;points=[];portConstraint=eastwest;" parent="A6NE80T4TAQlHc2OVtD5-1" vertex="1">
          <mxGeometry y="86" width="180" height="8" as="geometry" />
        </mxCell>
        <mxCell id="A6NE80T4TAQlHc2OVtD5-28" value="Phi_list_Consistent: JSON&amp;nbsp;NN" style="text;align=left;verticalAlign=top;spacingLeft=4;spacingRight=4;overflow=hidden;rotatable=0;points=[[0,0.5],[1,0.5]];portConstraint=eastwest;whiteSpace=wrap;html=1;" parent="A6NE80T4TAQlHc2OVtD5-1" vertex="1">
          <mxGeometry y="94" width="180" height="26" as="geometry" />
        </mxCell>
        <mxCell id="A6NE80T4TAQlHc2OVtD5-22" value="" style="line;strokeWidth=1;align=left;verticalAlign=middle;spacingTop=-1;spacingLeft=3;spacingRight=3;rotatable=0;labelPosition=right;points=[];portConstraint=eastwest;" parent="A6NE80T4TAQlHc2OVtD5-1" vertex="1">
          <mxGeometry y="120" width="180" height="8" as="geometry" />
        </mxCell>
        <mxCell id="A6NE80T4TAQlHc2OVtD5-21" value="Z_list: JSON&amp;nbsp;NN" style="text;align=left;verticalAlign=top;spacingLeft=4;spacingRight=4;overflow=hidden;rotatable=0;points=[[0,0.5],[1,0.5]];portConstraint=eastwest;whiteSpace=wrap;html=1;" parent="A6NE80T4TAQlHc2OVtD5-1" vertex="1">
          <mxGeometry y="128" width="180" height="26" as="geometry" />
        </mxCell>
        <mxCell id="A6NE80T4TAQlHc2OVtD5-27" value="" style="line;strokeWidth=1;align=left;verticalAlign=middle;spacingTop=-1;spacingLeft=3;spacingRight=3;rotatable=0;labelPosition=right;points=[];portConstraint=eastwest;" parent="A6NE80T4TAQlHc2OVtD5-1" vertex="1">
          <mxGeometry y="154" width="180" height="8" as="geometry" />
        </mxCell>
        <mxCell id="A6NE80T4TAQlHc2OVtD5-23" value="Phi_list: JSON&amp;nbsp;NN" style="text;align=left;verticalAlign=top;spacingLeft=4;spacingRight=4;overflow=hidden;rotatable=0;points=[[0,0.5],[1,0.5]];portConstraint=eastwest;whiteSpace=wrap;html=1;" parent="A6NE80T4TAQlHc2OVtD5-1" vertex="1">
          <mxGeometry y="162" width="180" height="26" as="geometry" />
        </mxCell>
        <mxCell id="A6NE80T4TAQlHc2OVtD5-29" value="parallel_circuit" style="swimlane;fontStyle=1;align=center;verticalAlign=top;childLayout=stackLayout;horizontal=1;startSize=26;horizontalStack=0;resizeParent=1;resizeParentMax=0;resizeLast=0;collapsible=1;marginBottom=0;whiteSpace=wrap;html=1;" parent="1" vertex="1">
          <mxGeometry x="480" y="280" width="160" height="188" as="geometry" />
        </mxCell>
        <mxCell id="A6NE80T4TAQlHc2OVtD5-30" value="id: PK NN AI" style="text;align=left;verticalAlign=top;spacingLeft=4;spacingRight=4;overflow=hidden;rotatable=0;points=[[0,0.5],[1,0.5]];portConstraint=eastwest;whiteSpace=wrap;html=1;" parent="A6NE80T4TAQlHc2OVtD5-29" vertex="1">
          <mxGeometry y="26" width="160" height="26" as="geometry" />
        </mxCell>
        <mxCell id="A6NE80T4TAQlHc2OVtD5-31" value="" style="line;strokeWidth=1;align=left;verticalAlign=middle;spacingTop=-1;spacingLeft=3;spacingRight=3;rotatable=0;labelPosition=right;points=[];portConstraint=eastwest;" parent="A6NE80T4TAQlHc2OVtD5-29" vertex="1">
          <mxGeometry y="52" width="160" height="8" as="geometry" />
        </mxCell>
        <mxCell id="A6NE80T4TAQlHc2OVtD5-44" value="Phi_list_Parallel: JSON&amp;nbsp;NN" style="text;align=left;verticalAlign=top;spacingLeft=4;spacingRight=4;overflow=hidden;rotatable=0;points=[[0,0.5],[1,0.5]];portConstraint=eastwest;whiteSpace=wrap;html=1;" parent="A6NE80T4TAQlHc2OVtD5-29" vertex="1">
          <mxGeometry y="60" width="160" height="26" as="geometry" />
        </mxCell>
        <mxCell id="A6NE80T4TAQlHc2OVtD5-33" value="" style="line;strokeWidth=1;align=left;verticalAlign=middle;spacingTop=-1;spacingLeft=3;spacingRight=3;rotatable=0;labelPosition=right;points=[];portConstraint=eastwest;" parent="A6NE80T4TAQlHc2OVtD5-29" vertex="1">
          <mxGeometry y="86" width="160" height="8" as="geometry" />
        </mxCell>
        <mxCell id="A6NE80T4TAQlHc2OVtD5-32" value="Gp_list: JSON NN" style="text;align=left;verticalAlign=top;spacingLeft=4;spacingRight=4;overflow=hidden;rotatable=0;points=[[0,0.5],[1,0.5]];portConstraint=eastwest;whiteSpace=wrap;html=1;" parent="A6NE80T4TAQlHc2OVtD5-29" vertex="1">
          <mxGeometry y="94" width="160" height="26" as="geometry" />
        </mxCell>
        <mxCell id="A6NE80T4TAQlHc2OVtD5-35" value="" style="line;strokeWidth=1;align=left;verticalAlign=middle;spacingTop=-1;spacingLeft=3;spacingRight=3;rotatable=0;labelPosition=right;points=[];portConstraint=eastwest;" parent="A6NE80T4TAQlHc2OVtD5-29" vertex="1">
          <mxGeometry y="120" width="160" height="8" as="geometry" />
        </mxCell>
        <mxCell id="A6NE80T4TAQlHc2OVtD5-34" value="Rp_list: JSON&amp;nbsp;NN" style="text;align=left;verticalAlign=top;spacingLeft=4;spacingRight=4;overflow=hidden;rotatable=0;points=[[0,0.5],[1,0.5]];portConstraint=eastwest;whiteSpace=wrap;html=1;" parent="A6NE80T4TAQlHc2OVtD5-29" vertex="1">
          <mxGeometry y="128" width="160" height="26" as="geometry" />
        </mxCell>
        <mxCell id="A6NE80T4TAQlHc2OVtD5-43" value="" style="line;strokeWidth=1;align=left;verticalAlign=middle;spacingTop=-1;spacingLeft=3;spacingRight=3;rotatable=0;labelPosition=right;points=[];portConstraint=eastwest;" parent="A6NE80T4TAQlHc2OVtD5-29" vertex="1">
          <mxGeometry y="154" width="160" height="8" as="geometry" />
        </mxCell>
        <mxCell id="A6NE80T4TAQlHc2OVtD5-36" value="Cp_list: JSON&amp;nbsp;NN" style="text;align=left;verticalAlign=top;spacingLeft=4;spacingRight=4;overflow=hidden;rotatable=0;points=[[0,0.5],[1,0.5]];portConstraint=eastwest;whiteSpace=wrap;html=1;" parent="A6NE80T4TAQlHc2OVtD5-29" vertex="1">
          <mxGeometry y="162" width="160" height="26" as="geometry" />
        </mxCell>
        <mxCell id="A6NE80T4TAQlHc2OVtD5-47" value="parameters" style="swimlane;fontStyle=1;align=center;verticalAlign=top;childLayout=stackLayout;horizontal=1;startSize=26;horizontalStack=0;resizeParent=1;resizeParentMax=0;resizeLast=0;collapsible=1;marginBottom=0;whiteSpace=wrap;html=1;" parent="1" vertex="1">
          <mxGeometry x="320" y="60" width="160" height="154" as="geometry" />
        </mxCell>
        <mxCell id="A6NE80T4TAQlHc2OVtD5-48" value="id: PK NN AI" style="text;align=left;verticalAlign=top;spacingLeft=4;spacingRight=4;overflow=hidden;rotatable=0;points=[[0,0.5],[1,0.5]];portConstraint=eastwest;whiteSpace=wrap;html=1;" parent="A6NE80T4TAQlHc2OVtD5-47" vertex="1">
          <mxGeometry y="26" width="160" height="26" as="geometry" />
        </mxCell>
        <mxCell id="A6NE80T4TAQlHc2OVtD5-49" value="" style="line;strokeWidth=1;align=left;verticalAlign=middle;spacingTop=-1;spacingLeft=3;spacingRight=3;rotatable=0;labelPosition=right;points=[];portConstraint=eastwest;" parent="A6NE80T4TAQlHc2OVtD5-47" vertex="1">
          <mxGeometry y="52" width="160" height="8" as="geometry" />
        </mxCell>
        <mxCell id="A6NE80T4TAQlHc2OVtD5-50" value="serial_circuit_id" style="text;align=left;verticalAlign=top;spacingLeft=4;spacingRight=4;overflow=hidden;rotatable=0;points=[[0,0.5],[1,0.5]];portConstraint=eastwest;whiteSpace=wrap;html=1;" parent="A6NE80T4TAQlHc2OVtD5-47" vertex="1">
          <mxGeometry y="60" width="160" height="26" as="geometry" />
        </mxCell>
        <mxCell id="A6NE80T4TAQlHc2OVtD5-51" value="" style="line;strokeWidth=1;align=left;verticalAlign=middle;spacingTop=-1;spacingLeft=3;spacingRight=3;rotatable=0;labelPosition=right;points=[];portConstraint=eastwest;" parent="A6NE80T4TAQlHc2OVtD5-47" vertex="1">
          <mxGeometry y="86" width="160" height="8" as="geometry" />
        </mxCell>
        <mxCell id="A6NE80T4TAQlHc2OVtD5-52" value="parallel_circuit_id" style="text;align=left;verticalAlign=top;spacingLeft=4;spacingRight=4;overflow=hidden;rotatable=0;points=[[0,0.5],[1,0.5]];portConstraint=eastwest;whiteSpace=wrap;html=1;" parent="A6NE80T4TAQlHc2OVtD5-47" vertex="1">
          <mxGeometry y="94" width="160" height="26" as="geometry" />
        </mxCell>
        <mxCell id="A6NE80T4TAQlHc2OVtD5-53" value="" style="line;strokeWidth=1;align=left;verticalAlign=middle;spacingTop=-1;spacingLeft=3;spacingRight=3;rotatable=0;labelPosition=right;points=[];portConstraint=eastwest;" parent="A6NE80T4TAQlHc2OVtD5-47" vertex="1">
          <mxGeometry y="120" width="160" height="8" as="geometry" />
        </mxCell>
        <mxCell id="A6NE80T4TAQlHc2OVtD5-54" value="z_only: Bool" style="text;align=left;verticalAlign=top;spacingLeft=4;spacingRight=4;overflow=hidden;rotatable=0;points=[[0,0.5],[1,0.5]];portConstraint=eastwest;whiteSpace=wrap;html=1;" parent="A6NE80T4TAQlHc2OVtD5-47" vertex="1">
          <mxGeometry y="128" width="160" height="26" as="geometry" />
        </mxCell>
        <mxCell id="A6NE80T4TAQlHc2OVtD5-55" value="" style="endArrow=none;html=1;rounded=0;" parent="1" edge="1">
          <mxGeometry width="50" height="50" relative="1" as="geometry">
            <mxPoint x="480" y="170" as="sourcePoint" />
            <mxPoint x="480" y="320" as="targetPoint" />
            <Array as="points">
              <mxPoint x="520" y="170" />
              <mxPoint x="520" y="240" />
              <mxPoint x="440" y="240" />
              <mxPoint x="440" y="280" />
              <mxPoint x="440" y="320" />
            </Array>
          </mxGeometry>
        </mxCell>
        <mxCell id="A6NE80T4TAQlHc2OVtD5-56" value="1" style="text;html=1;align=center;verticalAlign=middle;whiteSpace=wrap;rounded=0;" parent="1" vertex="1">
          <mxGeometry x="490" y="150" width="20" height="20" as="geometry" />
        </mxCell>
        <mxCell id="A6NE80T4TAQlHc2OVtD5-57" value="N" style="text;html=1;align=center;verticalAlign=middle;whiteSpace=wrap;rounded=0;" parent="1" vertex="1">
          <mxGeometry x="450" y="300" width="20" height="20" as="geometry" />
        </mxCell>
        <mxCell id="A6NE80T4TAQlHc2OVtD5-59" value="" style="endArrow=none;html=1;rounded=0;exitX=1;exitY=0.538;exitDx=0;exitDy=0;entryX=0;entryY=0.769;entryDx=0;entryDy=0;entryPerimeter=0;exitPerimeter=0;" parent="1" source="A6NE80T4TAQlHc2OVtD5-2" target="A6NE80T4TAQlHc2OVtD5-50" edge="1">
          <mxGeometry width="50" height="50" relative="1" as="geometry">
            <mxPoint x="250" y="240" as="sourcePoint" />
            <mxPoint x="310" y="140" as="targetPoint" />
            <Array as="points">
              <mxPoint x="360" y="320" />
              <mxPoint x="360" y="240" />
              <mxPoint x="280" y="240" />
              <mxPoint x="280" y="140" />
            </Array>
          </mxGeometry>
        </mxCell>
        <mxCell id="A6NE80T4TAQlHc2OVtD5-60" value="1" style="text;html=1;align=center;verticalAlign=middle;whiteSpace=wrap;rounded=0;" parent="1" vertex="1">
          <mxGeometry x="290" y="120" width="20" height="20" as="geometry" />
        </mxCell>
        <mxCell id="A6NE80T4TAQlHc2OVtD5-61" value="N" style="text;html=1;align=center;verticalAlign=middle;whiteSpace=wrap;rounded=0;" parent="1" vertex="1">
          <mxGeometry x="330" y="300" width="20" height="20" as="geometry" />
        </mxCell>
      </root>
    </mxGraphModel>
  </diagram>
</mxfile>
=======
<mxfile host="Electron" modified="2023-04-18T05:39:54.350Z" agent="5.0 (Windows NT 10.0; Win64; x64) AppleWebKit/537.36 (KHTML, like Gecko) draw.io/20.8.16 Chrome/106.0.5249.199 Electron/21.4.0 Safari/537.36" etag="dpy50V8oSxHGSWNpMBdG" version="20.8.16" type="device"><diagram id="OtYZnX7mGi9Z4rE8U8-V" name="Страница 1">7ZxRc6I8FIZ/jZffjgiovazW9uuu23ZsZ3a7N05WomYnEifEqv31m0ACatRC10IlzHQsOYQIeV/ywAlYs7uz1Q0F8+l34kFca9S9Vc2+qjUallW3+D8RWUeRlmNHgQlFnqyUBB7RK5TBuowukAeDrYqMEMzQfDs4Ir4PR2wrBigly+1qY4K3v3UOJlALPI4A1qM/kMemUbTdaCXx/yGaTNU3W82LaM0MqMrySIIp8MhyI2T3anaXEsKipdmqC7HoPNUv0XbXB9bGO0ahz9JsMHhq/Pnx8lxfPfvfb1/XzvBr7/E/2coLwAt5wLxBMIMM0kDuNlurvuBHMBeLDPwWoU7AAGVSMrvOA1wEBpAPKQ9YYRljMA9QWD2KTBH2+mBNFkw1pEqdMVpBbxApJupy8fq8MVEUjY95449yZ8RqgNHE58sjfvziGzsUBnxf+iBgsobeQ+pwIWVwtRGSPXYDCT90uuZV5FrblepJ+zqyuEy8YLVlbLrpA7UdkP6bxE0nEvEFqVIGxRqaYsd1GgjPdaaEolehDpa9ualdWF6iGQY+NzPwdkIdEp68oQYI4y7BRAjsEx9qGotKHiXzJ0AnkMnAnCCfhf3gdvgf75lu/Ytbc/m+dnnZSsr8T1SnrEv8gFHuJdEG5JIuoZC1w8hcNorhWLVPZb+L5d+EMTI7aICjJ8HbrpAusFO6wP4oE9iaCR6+HbQBP36GAB7w4RH4ExyJFo6WIBFtj7J7+zru392O3z09Ce/OMQ4HvCnyPOin16ORWo8NAeyM/S8bS3olc2sA83HHB4yfIAvfCzRR4/18v86OpvMtP0Mueej27ol/3t3xj8vbgqVXI3FUtxPMwQj5k360ZXPHG25e3ljVDp6r7km9kqq5HMziVmRIRYb6B5KhWTQZmpoJrosmA/SQau8fweCmlqPsYGhpMgeQcimHI0RHC8SGYuttTnxuROTiCuOQ0K6QUDgSLopGwkWZkdBOLUfZkaAyZju5HIyhkVRIbwzjqGDpWb8KC3ljwWoUzQUrQyrx3LBgpdej9FzQk4WvQ+LjdYSCzv19v+wsyOAG82Cg5xh3LxuOw6FmxESQq6SRw/deh1zskTQe008/flcJv9NPBTmpjXFkLmifDz4O43rKr0yTQVaV9Iu7Qs/6mT4dlMEdR8jePC3Z0zSXh12q7N/pb/My82HfjFC+fNDzfwUPECe8zavSf/HEuJ7+e5iiIUYBGz7IC/qIFV8f7+9Kf8d3kvRfObnQqNJ/n4AL+6aFcuWCUr2MXMhwf196Lujpv5t5iAVzaPCO537NoYGe/6tokDsN9s4G5YuDDNnEs8NBej1KjwM9WzgwDgfp7WAcDhz9cqHCQf44cIvGgZPhsuDccBB7vMKBo1O/axoOMtjBPBzolwvbD5ofh0PNiGcDYrGOPRuQ71uijj5VWGH8H58NiM+F83lP1NGnAMv0bEDs8grkjj7LZ/qzARncYdxTf2o3Kj6c7jYvOx8Kf1vUzTAVeG53ebHFKzi4DU3ma1OfDMhgC/OoUCX/PgEVCn9h1C1x7s+tcn9xV+i5v1+Gpf4yuME8GOipvwoGucOg+NdE3QypxLOjQXo9Sk+DPalC+fywQTxI7wfjeNByNeGhN4EqWceH0imZEB/gXhLtULE7UI3zSZ0+CTUXp+8fyNha8gEsGBEMYTMs18IVYj/Vec+Xn8XyF1eWrlYbq64UO7jGdP1zs7CxlSgmm4WlZDvvUvxkLC/2BpE1eega4S2UJVVmwF+r6EYt3WsyyxKQBR3BY3iQQy1TTDvo06ie6P+jJqUQA4Ze4NZunJwQrWaRzrDe4wwrmzPSCf+mf97vDPWe25vOaOfkDF5Mfro4GmKSH4C2e38B</diagram></mxfile>
>>>>>>> 42db894f9e9451fae002229458be4cb7795cc2bb
